<svg id="Layer_1" data-name="Layer 1" xmlns="http://www.w3.org/2000/svg" viewBox="0 0 85 74.5">
    <defs>
        <style>.cls-1{opacity:0.1;}.cls-2{fill:#fff;}</style>
    </defs>
    <title>quote</title>
    <g class="cls-1">
        <path class="cls-2"
              d="M39.13,16.57a1.09,1.09,0,0,1,.27,0c.38-.23-1-2.91-1.64-4.58.35-.84-.38-1.6-1.35-4.29.31-.33-.41-.8-.83-1.85a15.06,15.06,0,0,1-1.9-3.9L32.89,0,30.68.85c-.42.17-.9.36-1.45.63-1.82,1.26-3.18,2.06-4.79,3a47.14,47.14,0,0,0-6.11,4.09,75.72,75.72,0,0,0-6.55,6.75,65.83,65.83,0,0,0-5.52,7.31c-.46,1.39-.86,1.44-1,3a31.65,31.65,0,0,0-2.46,5A16.08,16.08,0,0,0,1.61,36,7.3,7.3,0,0,0,.55,39.53c-.2,1.55-.29,3.25-.49,4.4a47.14,47.14,0,0,0,.32,8.42,35.57,35.57,0,0,0,2,8.11,25,25,0,0,0,4.3,7.37,19.48,19.48,0,0,0,7.18,5.3A20.45,20.45,0,0,0,18,74.23a26.47,26.47,0,0,0,3.9.27A18.39,18.39,0,0,0,29,73.13a15.49,15.49,0,0,0,5.4-3.8A14.4,14.4,0,0,0,37.53,64a11.49,11.49,0,0,0,1.58-3.31,15.34,15.34,0,0,0,.58-3.37,31,31,0,0,0,0-3.75A25.53,25.53,0,0,0,39,48.78,15.94,15.94,0,0,0,36,44a15.71,15.71,0,0,0-4.33-3.31,15.12,15.12,0,0,0-8.78-1.5,7.24,7.24,0,0,0-3.48.25,15.84,15.84,0,0,1,.45-3.23,24,24,0,0,1,1.67-4.48,23.65,23.65,0,0,1,2.54-4.08,36.93,36.93,0,0,1,6.56-6.35c1.24-.7,2.4-1.21,4.11-2.29a10,10,0,0,0,2-.72,5,5,0,0,0,.57-.29l.25-.16a2.65,2.65,0,0,0,.35-.24c.39-.33.43-.54.09-.58a2.34,2.34,0,0,1,.75-.41Z"/>
        <path class="cls-2"
              d="M84.37,16.57a1.17,1.17,0,0,1,.28,0c.37-.23-1-2.91-1.65-4.58.35-.84-.38-1.6-1.35-4.29.32-.33-.41-.8-.83-1.85a15.06,15.06,0,0,1-1.9-3.9L78.13,0l-2.2.85c-.43.17-.9.36-1.45.63-1.83,1.26-3.19,2.06-4.8,3a48.55,48.55,0,0,0-6.11,4.09A78.62,78.62,0,0,0,57,15.33a65.83,65.83,0,0,0-5.52,7.31c-.45,1.39-.86,1.44-1,3a31.65,31.65,0,0,0-2.46,5A16.33,16.33,0,0,0,46.85,36a7.42,7.42,0,0,0-1.06,3.52c-.2,1.55-.29,3.25-.49,4.4a49.08,49.08,0,0,0,.32,8.42,35.59,35.59,0,0,0,2,8.11,24.94,24.94,0,0,0,4.29,7.37,19.48,19.48,0,0,0,7.18,5.3,20.62,20.62,0,0,0,4.17,1.1,26.47,26.47,0,0,0,3.9.27,18.39,18.39,0,0,0,7.09-1.37,15.49,15.49,0,0,0,5.4-3.8A14.4,14.4,0,0,0,82.77,64a11.49,11.49,0,0,0,1.58-3.31,16,16,0,0,0,.59-3.37,31.09,31.09,0,0,0,0-3.75,25.53,25.53,0,0,0-.71-4.77,15.94,15.94,0,0,0-3-4.75,15.71,15.71,0,0,0-4.33-3.31,15.08,15.08,0,0,0-8.77-1.5,7.28,7.28,0,0,0-3.49.25,15.84,15.84,0,0,1,.45-3.23,24.71,24.71,0,0,1,1.67-4.48,23.7,23.7,0,0,1,2.55-4.08,36.89,36.89,0,0,1,6.55-6.35c1.24-.7,2.4-1.21,4.11-2.29a9.86,9.86,0,0,0,2-.72,5.85,5.85,0,0,0,.56-.29l.26-.16a3.33,3.33,0,0,0,.34-.24c.39-.33.43-.54.09-.58a2.28,2.28,0,0,1,.76-.41Z"/>
    </g>
</svg>